<?xml version="1.0" encoding="UTF-8"?>
<svg xmlns="http://www.w3.org/2000/svg" xmlns:xlink="http://www.w3.org/1999/xlink" width="112.5pt" height="37.5pt" viewBox="0 0 112.5 37.5" version="1.1">
<g id="surface6">
<path style=" stroke:none;fill-rule:nonzero;fill:rgb(20%,20%,20%);fill-opacity:1;" d="M 63.808594 20.65625 L 63.914062 20.765625 L 63.800781 20.648438 C 62.753906 20.722656 61.90625 21.136719 61.265625 21.886719 L 61.253906 21.871094 L 61.3125 21.929688 C 60.632812 22.640625 60.265625 23.566406 60.210938 24.703125 L 60.292969 24.789062 L 60.179688 24.683594 C 60.191406 26.082031 60.40625 27.019531 60.824219 27.496094 L 60.789062 27.457031 L 60.691406 27.359375 C 61.261719 28.011719 62.128906 28.296875 63.292969 28.214844 L 63.316406 28.246094 L 63.292969 28.222656 C 65.617188 28.074219 66.875 27.246094 67.066406 25.738281 L 67.125 25.792969 L 67.085938 25.761719 C 67.109375 25.324219 67.117188 24.902344 67.117188 24.503906 L 67.085938 24.480469 L 67.171875 24.5625 C 67.164062 23.566406 66.878906 22.6875 66.308594 21.921875 L 66.292969 21.90625 L 66.269531 21.886719 C 65.636719 21.078125 64.828125 20.6875 63.855469 20.707031 Z M 67.46875 28.253906 L 67.484375 28.265625 L 67.441406 28.222656 C 66.800781 29.390625 65.386719 30.035156 63.195312 30.148438 L 63.164062 30.121094 L 63.066406 30.023438 C 61.027344 30.152344 59.597656 29.941406 58.777344 29.386719 L 58.746094 29.355469 C 58.257812 28.886719 57.976562 28.222656 57.898438 27.367188 L 57.929688 27.398438 L 57.890625 27.359375 C 57.933594 26.863281 58 26.152344 58.09375 25.222656 L 58.003906 25.132812 L 58.035156 25.164062 C 58.324219 23.050781 58.773438 21.539062 59.386719 20.625 L 59.386719 20.632812 L 59.40625 20.648438 C 60.1875 19.371094 61.539062 18.746094 63.457031 18.765625 L 63.480469 18.78125 L 63.375 18.675781 C 64.636719 18.703125 65.835938 19.300781 66.984375 20.460938 L 67.058594 20.535156 C 67.09375 17.601562 67.511719 14.503906 68.308594 11.25 L 68.347656 11.289062 L 68.339844 11.289062 C 69.328125 11.113281 70.292969 10.816406 71.226562 10.402344 L 71.121094 10.296875 L 71.152344 10.328125 C 69.863281 13.640625 69.148438 17.050781 69.015625 20.550781 L 69.050781 20.585938 L 69.03125 20.566406 C 68.855469 24.125 69.300781 27.550781 70.363281 30.839844 L 70.351562 30.824219 L 70.335938 30.808594 C 69.539062 30.523438 68.710938 30.289062 67.851562 30.097656 L 67.914062 30.148438 L 67.84375 30.089844 C 67.644531 29.394531 67.507812 28.769531 67.433594 28.214844 Z M 69.816406 32.429688 L 69.75 32.363281 L 69.816406 32.4375 C 70.871094 32.726562 72.039062 33.253906 73.3125 34.011719 L 73.230469 33.929688 C 71.378906 30.40625 70.417969 26.566406 70.34375 22.417969 L 70.378906 22.460938 L 70.425781 22.507812 C 70.355469 18.398438 71.089844 14.496094 72.628906 10.808594 L 72.515625 10.695312 L 72.53125 10.710938 C 72.1875 10.933594 71.652344 11.210938 70.925781 11.535156 L 71.03125 11.632812 L 70.957031 11.566406 C 71.101562 10.964844 71.328125 10.359375 71.632812 9.75 L 71.746094 9.863281 L 71.65625 9.773438 C 70.53125 10.382812 69.359375 10.828125 68.144531 11.113281 L 68.011719 10.980469 L 68.070312 11.039062 C 67.316406 13.898438 66.871094 16.851562 66.734375 19.898438 L 66.832031 19.996094 L 66.796875 19.957031 C 65.816406 19.011719 64.695312 18.511719 63.433594 18.457031 L 63.375 18.398438 L 63.390625 18.40625 C 61.683594 18.359375 60.359375 18.863281 59.40625 19.914062 L 59.421875 19.925781 L 59.496094 20.003906 C 58.636719 21.175781 58.101562 22.933594 57.890625 25.273438 L 57.863281 25.246094 L 57.878906 25.261719 C 57.675781 26.566406 57.578125 27.324219 57.578125 27.53125 L 57.691406 27.644531 C 57.691406 28.480469 57.976562 29.164062 58.546875 29.699219 L 58.589844 29.746094 L 58.507812 29.664062 C 58.667969 29.824219 58.796875 29.921875 58.890625 29.953125 L 58.933594 30 L 59.25 30.457031 L 59.210938 30.421875 C 59.664062 31.058594 60.628906 31.449219 62.113281 31.582031 L 62.167969 31.636719 L 62.183594 31.648438 C 63.3125 31.75 64.21875 31.820312 64.90625 31.859375 L 64.816406 31.769531 C 66.921875 31.875 68.402344 31.59375 69.261719 30.929688 L 69.238281 30.914062 L 69.300781 30.976562 C 69.394531 31.351562 69.554688 31.824219 69.78125 32.390625 Z M 65.136719 22.5 L 65.03125 22.394531 C 65.574219 22.421875 66.050781 22.558594 66.472656 22.808594 L 66.523438 22.859375 L 66.511719 22.84375 C 66.753906 23.488281 66.894531 24.066406 66.929688 24.578125 L 66.863281 24.511719 C 66.992188 26.601562 65.800781 27.734375 63.292969 27.90625 L 63.398438 28.011719 L 63.351562 27.960938 C 62.886719 27.953125 62.378906 27.886719 61.828125 27.757812 L 61.882812 27.808594 L 61.925781 27.855469 C 61.761719 27.496094 61.660156 27.183594 61.621094 26.917969 L 61.710938 27.007812 L 61.628906 26.925781 C 61.65625 26.648438 61.679688 26.359375 61.695312 26.054688 L 61.589844 25.949219 C 61.785156 24.28125 62.539062 23.199219 63.855469 22.703125 L 63.816406 22.65625 L 63.90625 22.746094 C 64.324219 22.503906 64.703125 22.390625 65.046875 22.410156 Z M 65.136719 22.5 "/>
<path style=" stroke:none;fill-rule:nonzero;fill:rgb(20%,20%,20%);fill-opacity:1;" d="M 28.027344 17.332031 L 27.945312 17.242188 L 27.96875 17.265625 C 27.039062 18.605469 25.90625 20.683594 24.578125 23.496094 L 24.570312 23.488281 L 23.183594 26.78125 L 23.128906 26.730469 C 22.691406 27.679688 22.136719 28.71875 21.464844 29.84375 L 21.441406 29.8125 L 21.449219 29.820312 C 21.683594 29.828125 21.386719 29.84375 20.550781 29.863281 L 20.625 29.941406 L 20.585938 29.894531 C 20.59375 29.90625 20.28125 29.910156 19.648438 29.910156 L 19.6875 29.941406 L 19.65625 29.910156 C 19.277344 29.148438 18.351562 26.980469 16.882812 23.398438 L 16.914062 23.429688 L 16.933594 23.453125 C 15.820312 20.738281 14.738281 18.628906 13.695312 17.121094 L 13.671875 17.109375 L 13.636719 17.0625 C 14.003906 18.59375 14.191406 20.148438 14.191406 21.726562 L 14.226562 21.765625 L 14.324219 21.863281 C 14.304688 25.097656 13.550781 28.105469 12.066406 30.886719 L 12.089844 30.90625 L 11.984375 30.808594 C 11.339844 30.996094 10.425781 31.269531 9.246094 31.636719 L 9.261719 31.65625 L 9.292969 31.6875 C 11.074219 28.78125 11.960938 25.523438 11.960938 21.90625 L 11.984375 21.921875 L 12.050781 21.996094 C 12.03125 17.503906 10.671875 13.511719 7.972656 10.027344 L 7.921875 9.976562 L 8.054688 10.117188 C 8.816406 10.417969 9.785156 10.738281 10.964844 11.085938 L 11.054688 11.175781 L 11.003906 11.121094 C 14.492188 14.457031 17.761719 19.457031 20.804688 26.121094 L 20.828125 26.144531 L 20.773438 26.085938 C 22.523438 22.585938 23.953125 19.960938 25.058594 18.210938 L 25.183594 18.335938 C 26.921875 15.386719 28.777344 13.046875 30.757812 11.316406 L 30.742188 11.308594 L 30.796875 11.355469 C 31.425781 11.238281 32.328125 10.992188 33.511719 10.613281 L 33.421875 10.53125 L 33.449219 10.558594 C 30.964844 13.875 29.722656 17.683594 29.722656 21.988281 L 29.753906 22.019531 L 29.804688 22.074219 C 29.789062 25.386719 30.636719 28.425781 32.347656 31.183594 L 32.296875 31.132812 L 32.378906 31.214844 C 31.671875 31.019531 30.636719 30.769531 29.265625 30.464844 L 29.183594 30.390625 L 29.28125 30.480469 C 28.101562 28.085938 27.511719 25.394531 27.511719 22.410156 L 27.53125 22.425781 C 27.453125 20.636719 27.585938 18.902344 27.929688 17.226562 Z M 29.0625 30.699219 L 29.167969 30.796875 L 29.144531 30.78125 C 29.496094 30.84375 30.03125 30.941406 30.757812 31.074219 L 30.636719 30.960938 L 30.765625 31.085938 C 30.914062 31.386719 31.226562 31.90625 31.703125 32.648438 L 31.71875 32.664062 L 31.824219 32.765625 C 32.832031 32.921875 34.203125 33.304688 35.941406 33.914062 L 35.96875 33.953125 L 35.910156 33.886719 C 32.84375 30.785156 31.3125 26.78125 31.3125 21.871094 L 31.28125 21.839844 L 31.214844 21.765625 C 31.253906 17.945312 32.371094 14.503906 34.558594 11.4375 L 34.550781 11.429688 L 32.941406 11.984375 L 32.886719 11.933594 C 33.363281 11.132812 33.761719 10.515625 34.085938 10.078125 L 34.125 10.117188 L 34.078125 10.074219 C 33.210938 10.460938 32.121094 10.789062 30.808594 11.054688 L 30.839844 11.085938 C 27.390625 14.070312 24.148438 18.710938 21.121094 25.011719 L 21.082031 24.96875 L 21.164062 25.050781 C 18.539062 19.53125 15.988281 15.457031 13.515625 12.832031 L 13.539062 12.855469 L 13.515625 12.832031 C 13.328125 12.796875 13.09375 12.753906 12.808594 12.699219 L 12.855469 12.75 L 11.949219 11.78125 L 11.902344 11.738281 C 11.664062 11.460938 11.371094 11.171875 11.03125 10.867188 L 10.980469 10.816406 C 9.449219 10.316406 8.238281 9.886719 7.351562 9.523438 L 7.328125 9.503906 C 10.363281 13.148438 11.878906 17.320312 11.878906 22.019531 L 11.828125 21.96875 L 11.902344 22.042969 C 11.871094 25.816406 10.820312 29.171875 8.746094 32.101562 L 8.714844 32.070312 L 8.664062 32.023438 C 8.996094 31.90625 9.488281 31.738281 10.140625 31.53125 L 10.230469 31.621094 L 10.191406 31.582031 C 10.164062 31.742188 9.796875 32.347656 9.089844 33.398438 L 9.105469 33.414062 L 9.089844 33.390625 C 9.984375 33.144531 11.308594 32.832031 13.058594 32.453125 L 12.988281 32.378906 L 13.074219 32.46875 C 14.886719 28.890625 15.746094 25.164062 15.652344 21.277344 L 15.75 21.382812 L 15.726562 21.359375 C 16.417969 23.285156 17.628906 26.21875 19.359375 30.15625 L 19.476562 30.277344 L 19.484375 30.277344 C 19.523438 30.167969 19.601562 30.113281 19.71875 30.113281 L 19.703125 30.105469 L 20.199219 30.195312 L 20.210938 30.210938 C 20.40625 30.519531 20.703125 31 21.105469 31.648438 L 21.148438 31.695312 L 21.164062 31.710938 C 22 31.726562 22.417969 31.734375 22.417969 31.734375 L 22.289062 31.605469 L 22.410156 31.726562 C 22.894531 31.695312 23.300781 31.699219 23.625 31.738281 L 23.566406 31.679688 L 23.601562 31.71875 C 24.398438 29.710938 25.632812 26.710938 27.308594 22.71875 L 27.234375 22.636719 L 27.285156 22.6875 C 27.171875 25.359375 27.761719 28.023438 29.054688 30.691406 Z M 29.0625 30.699219 "/>
<path style="fill:none;stroke-width:1;stroke-linecap:butt;stroke-linejoin:miter;stroke:rgb(53.333333%,53.333333%,53.333333%);stroke-opacity:1;stroke-miterlimit:4;" d="M 12 35 C 90 37 85 23 132 31 " transform="matrix(0.75,0,0,0.75,0,0)"/>
<path style="fill:none;stroke-width:1;stroke-linecap:butt;stroke-linejoin:miter;stroke:rgb(53.333333%,53.333333%,53.333333%);stroke-opacity:1;stroke-miterlimit:4;" d="M 18 16 C 64 45 77 8 129 34 " transform="matrix(0.75,0,0,0.75,0,0)"/>
<path style="fill:none;stroke-width:1;stroke-linecap:butt;stroke-linejoin:miter;stroke:rgb(53.333333%,53.333333%,53.333333%);stroke-opacity:1;stroke-miterlimit:4;" d="M 19 4 C 73 10 60 35 142 27 " transform="matrix(0.75,0,0,0.75,0,0)"/>
<path style=" stroke:none;fill-rule:nonzero;fill:rgb(13.333333%,13.333333%,13.333333%);fill-opacity:1;" d="M 43.066406 21.554688 L 43.042969 21.53125 L 43.09375 21.585938 C 41.800781 21.546875 40.828125 21.8125 40.183594 22.386719 L 40.171875 22.371094 L 40.253906 22.453125 C 39.542969 23.074219 39.234375 24.015625 39.328125 25.273438 L 39.285156 25.230469 L 39.21875 25.15625 C 39.398438 26.671875 39.78125 27.691406 40.371094 28.222656 L 40.363281 28.222656 L 40.417969 28.273438 C 41.171875 28.933594 42.074219 29.226562 43.117188 29.144531 L 42.984375 29.011719 C 44.140625 29.105469 45.074219 28.835938 45.78125 28.207031 L 45.699219 28.132812 L 45.660156 28.085938 C 46.355469 27.546875 46.75 26.640625 46.84375 25.363281 L 46.914062 25.433594 L 46.875 25.394531 C 47.023438 22.894531 45.757812 21.617188 43.074219 21.5625 Z M 43.011719 31.011719 L 42.988281 30.984375 L 41.804688 30.976562 L 41.761719 30.921875 C 40.425781 31.015625 39.386719 30.710938 38.640625 30.007812 L 38.558594 29.925781 L 38.59375 29.953125 C 38.121094 29.464844 37.816406 28.734375 37.6875 27.765625 L 37.671875 27.757812 L 37.640625 27.71875 C 37.542969 27.148438 37.453125 26.3125 37.378906 25.207031 L 37.328125 25.15625 L 37.425781 25.246094 C 37.359375 24.730469 37.300781 23.910156 37.246094 22.785156 L 37.3125 22.859375 L 37.28125 22.824219 C 37.226562 21.878906 37.4375 21.117188 37.914062 20.542969 L 37.941406 20.574219 L 37.851562 20.484375 C 38.734375 19.746094 40.351562 19.417969 42.710938 19.492188 L 42.832031 19.613281 L 42.796875 19.566406 C 45.210938 19.609375 46.875 20.007812 47.789062 20.765625 L 47.761719 20.746094 C 48.558594 21.410156 48.914062 22.542969 48.816406 24.140625 L 48.824219 24.148438 L 48.765625 24.082031 C 48.714844 25.921875 48.671875 26.945312 48.636719 27.148438 L 48.585938 27.105469 L 48.503906 27.023438 C 48.414062 28.226562 48.035156 29.125 47.371094 29.714844 L 47.324219 29.671875 L 47.316406 29.664062 C 46.316406 30.527344 44.867188 30.960938 42.96875 30.960938 Z M 46.558594 32.84375 L 46.574219 32.863281 L 46.539062 32.820312 C 47.292969 32.855469 48.144531 32.835938 49.09375 32.761719 L 48.988281 32.648438 L 49.003906 32.664062 C 49.28125 32.652344 49.417969 32.609375 49.417969 32.527344 L 49.394531 32.503906 L 49.460938 32.574219 C 49.425781 32.503906 49.398438 32.429688 49.378906 32.355469 L 49.394531 32.363281 L 49.460938 32.4375 C 49.414062 32.328125 49.386719 32.246094 49.386719 32.191406 L 49.296875 32.101562 L 49.441406 32.242188 C 49.375 32.046875 49.429688 31.871094 49.605469 31.71875 L 49.671875 31.792969 L 49.695312 31.816406 C 50.109375 31.21875 50.316406 30.449219 50.316406 29.496094 L 50.265625 29.445312 L 50.332031 29.511719 C 50.347656 29.046875 50.332031 28.210938 50.289062 27.007812 L 50.21875 26.941406 L 50.234375 26.953125 C 50.160156 25.71875 50.085938 24.824219 50.011719 24.269531 L 50.023438 24.285156 L 50.078125 24.335938 C 49.890625 23.28125 49.574219 22.46875 49.117188 21.898438 L 48.996094 21.78125 L 48.800781 21.667969 L 48.890625 21.757812 C 48.757812 21.378906 48.488281 20.960938 48.089844 20.503906 L 48.164062 20.578125 L 48.148438 20.558594 C 46.96875 19.664062 45.152344 19.214844 42.699219 19.214844 L 41.445312 19.28125 L 41.378906 19.207031 C 39.761719 19.253906 38.527344 19.617188 37.671875 20.300781 L 37.6875 20.316406 L 37.597656 20.226562 C 37.183594 20.800781 36.984375 21.59375 37.003906 22.605469 L 36.976562 22.574219 L 37.058594 22.65625 C 37.085938 22.890625 37.136719 23.324219 37.199219 23.953125 L 37.066406 23.820312 L 37.101562 23.859375 C 37.234375 24.546875 37.289062 25.007812 37.265625 25.238281 L 37.191406 25.164062 L 37.261719 25.230469 C 37.375 26.753906 37.453125 27.628906 37.492188 27.855469 L 37.46875 27.832031 L 37.378906 27.75 C 37.574219 28.820312 37.902344 29.640625 38.363281 30.210938 L 38.398438 30.253906 L 38.542969 30.449219 L 38.476562 30.382812 C 38.886719 31.613281 40.023438 32.332031 41.886719 32.542969 L 41.96875 32.625 C 42.363281 32.640625 43.875 32.695312 46.5 32.789062 Z M 44.460938 23.296875 L 44.542969 23.378906 L 44.484375 23.316406 C 44.957031 23.371094 45.613281 23.53125 46.449219 23.796875 L 46.433594 23.78125 L 46.394531 23.738281 C 46.546875 24.082031 46.609375 24.625 46.589844 25.363281 L 46.582031 25.359375 L 46.605469 25.378906 C 46.578125 27.144531 45.84375 28.21875 44.398438 28.597656 L 44.308594 28.507812 L 44.378906 28.582031 C 44.027344 28.683594 43.59375 28.761719 43.078125 28.824219 L 43.003906 28.746094 L 43.011719 28.753906 C 42.558594 28.851562 41.898438 28.746094 41.039062 28.441406 L 40.925781 28.328125 L 41.0625 28.453125 C 40.847656 28.015625 40.75 27.425781 40.769531 26.683594 L 40.761719 26.675781 L 40.785156 26.699219 C 40.804688 25.519531 41.15625 24.671875 41.84375 24.15625 L 41.910156 24.226562 L 41.894531 24.210938 C 42.328125 23.75 43.183594 23.445312 44.460938 23.296875 Z M 44.460938 23.296875 "/>
<path style=" stroke:none;fill-rule:nonzero;fill:rgb(13.333333%,13.333333%,13.333333%);fill-opacity:1;" d="M 94.222656 26.015625 L 94.183594 25.980469 L 94.199219 25.996094 C 94.199219 27.78125 93.410156 28.996094 91.828125 29.648438 L 91.882812 29.699219 L 91.824219 29.632812 C 90.882812 30.050781 89.308594 30.300781 87.105469 30.375 L 87.140625 30.414062 L 87.136719 30.40625 C 84.738281 30.464844 82.984375 30.199219 81.863281 29.609375 L 81.796875 29.550781 L 81.855469 29.601562 C 80.96875 28.984375 80.566406 27.835938 80.640625 26.160156 L 80.632812 26.160156 L 80.65625 26.183594 C 80.613281 25.8125 80.640625 25.136719 80.738281 24.148438 L 80.746094 24.15625 L 80.8125 24.226562 C 80.859375 23.414062 80.878906 22.761719 80.878906 22.265625 L 80.835938 22.222656 L 80.851562 22.238281 C 80.875 18.261719 79.839844 14.421875 77.746094 10.710938 L 77.671875 10.636719 C 78.238281 10.953125 79.265625 11.382812 80.753906 11.917969 L 80.722656 11.878906 L 80.765625 11.925781 C 82.203125 15.289062 82.921875 18.816406 82.921875 22.507812 L 82.890625 22.476562 L 82.949219 22.53125 C 82.949219 22.839844 82.925781 23.289062 82.882812 23.878906 L 82.925781 23.925781 L 82.941406 23.941406 C 82.824219 24.460938 82.761719 24.871094 82.761719 25.175781 L 82.851562 25.265625 C 82.777344 26.335938 83.132812 27.121094 83.917969 27.613281 L 83.960938 27.660156 L 84.03125 27.726562 C 84.78125 28.058594 85.898438 28.222656 87.382812 28.222656 L 87.441406 28.28125 L 87.414062 28.253906 C 88.738281 28.261719 89.808594 27.972656 90.621094 27.382812 L 90.675781 27.433594 L 90.636719 27.398438 C 91.527344 26.6875 91.933594 25.703125 91.851562 24.441406 L 91.949219 24.546875 L 91.988281 24.578125 C 91.9375 23.878906 91.914062 23.195312 91.914062 22.53125 L 91.835938 22.453125 L 91.875 22.492188 C 91.894531 18.992188 92.503906 15.613281 93.703125 12.359375 L 93.691406 12.351562 L 95.226562 11.828125 L 95.308594 11.910156 C 95.769531 11.746094 96.273438 11.546875 96.824219 11.316406 L 96.863281 11.355469 L 96.78125 11.265625 C 94.941406 14.855469 94.019531 18.542969 94.019531 22.328125 L 93.988281 22.296875 L 93.988281 22.304688 C 94.066406 22.796875 94.136719 23.449219 94.207031 24.269531 L 94.140625 24.203125 L 94.199219 24.261719 C 94.246094 25.058594 94.265625 25.65625 94.265625 26.054688 Z M 95.859375 26.707031 L 95.796875 26.648438 L 95.859375 26.707031 C 95.421875 24.238281 95.386719 21.726562 95.753906 19.175781 L 95.738281 19.164062 L 95.78125 19.207031 C 96.078125 16.539062 96.824219 14.109375 98.023438 11.917969 L 98.144531 12.03125 L 98.0625 11.953125 C 97.722656 12.070312 97.191406 12.289062 96.464844 12.613281 L 96.585938 12.734375 L 96.53125 12.683594 C 96.738281 12.273438 97.039062 11.675781 97.441406 10.898438 L 97.449219 10.90625 L 97.394531 10.851562 C 95.699219 11.503906 94.378906 11.914062 93.425781 12.082031 L 93.316406 11.96875 L 93.433594 12.097656 C 92.265625 15.363281 91.679688 18.8125 91.679688 22.449219 L 91.550781 22.320312 C 91.628906 23.074219 91.683594 23.804688 91.71875 24.511719 L 91.726562 24.515625 L 91.6875 24.480469 C 91.738281 25.65625 91.316406 26.546875 90.421875 27.148438 L 90.511719 27.238281 L 90.480469 27.210938 C 89.714844 27.71875 88.703125 27.984375 87.449219 28.003906 L 87.472656 28.035156 L 87.496094 28.050781 C 86.089844 28.054688 85.027344 27.867188 84.308594 27.488281 L 84.203125 27.382812 L 84.253906 27.433594 C 84.199219 27.175781 84.15625 26.929688 84.121094 26.699219 L 84.136719 26.722656 L 84.121094 26.707031 C 84.148438 26.503906 84.191406 26.277344 84.246094 26.03125 L 84.253906 26.039062 L 84.1875 25.972656 C 84.316406 24.828125 84.382812 23.675781 84.382812 22.515625 L 84.414062 22.539062 L 84.367188 22.492188 C 84.386719 19.601562 84.015625 16.683594 83.257812 13.734375 L 83.316406 13.800781 L 83.175781 13.648438 C 82.890625 13.671875 82.394531 13.59375 81.691406 13.425781 L 81.59375 13.328125 L 81.691406 13.425781 C 81.480469 12.761719 81.261719 12.199219 81.03125 11.738281 L 81.058594 11.765625 L 80.960938 11.671875 C 79.652344 11.328125 78.398438 10.816406 77.199219 10.132812 L 77.226562 10.164062 L 77.160156 10.085938 C 79.480469 13.890625 80.640625 17.976562 80.640625 22.335938 L 80.558594 22.261719 L 80.648438 22.351562 C 80.617188 23.136719 80.5625 23.953125 80.484375 24.808594 L 80.542969 24.871094 L 80.558594 24.886719 C 80.398438 26.035156 80.335938 26.90625 80.371094 27.496094 L 80.4375 27.5625 L 80.332031 27.457031 C 80.449219 28.46875 80.820312 29.257812 81.449219 29.828125 L 81.382812 29.765625 L 81.496094 29.871094 C 81.949219 31.074219 83.335938 31.765625 85.65625 31.957031 L 85.703125 32.003906 L 85.734375 32.023438 C 86.773438 32.09375 87.824219 32.148438 88.890625 32.191406 L 88.914062 32.210938 L 88.84375 32.144531 C 91.503906 32.214844 93.53125 32.011719 94.921875 31.539062 L 94.988281 31.605469 L 94.980469 31.597656 C 95.714844 31.09375 96.082031 30.328125 96.082031 29.300781 L 96.210938 29.429688 L 96.226562 29.4375 C 96.21875 28.867188 96.101562 27.960938 95.871094 26.722656 Z M 95.859375 26.707031 "/>
</g>
</svg>
